<svg width="100" height="100" viewBox="0 0 100 100" fill="none" xmlns="http://www.w3.org/2000/svg">
<rect width="100" height="100" rx="32" fill="black"/>
<path d="M49.9996 77.8528L50.8217 77.0629C53.5417 74.4522 55.1091 70.8455 55.1091 67.0127C55.1091 60.8971 51.2491 57.4767 51.1894 57.3301V53.5569C51.1894 49.3615 54.6248 45.9237 58.8202 45.9237C64.5532 46.2044 69.9211 42.9231 72.2535 37.6421C73.3167 35.2326 73.4185 33.5162 73.4508 31.0496L72.3107 30.9875C66.5553 30.677 61.1576 33.9633 58.8177 39.2642C58.2067 40.6502 57.8316 42.1158 57.6925 43.6086C54.3962 43.9812 51.5372 45.9808 49.9996 48.8349C48.4645 45.9783 45.603 43.9812 42.3067 43.6086C41.8149 38.2681 38.2802 33.6504 33.2079 31.8048C30.7264 30.9031 29.0124 30.9155 26.5508 31.0496L26.5657 32.1873C26.6651 40.0938 33.3072 46.3137 41.1815 45.9237C45.3744 45.9237 48.8122 49.3615 48.8122 53.5569V57.3301C47.6348 58.5448 46.6785 59.9756 46.0053 61.5554C44.5199 65.0379 44.5199 68.9875 46.0053 72.4725C47.0412 74.9018 48.2211 76.1463 50.0021 77.8528H49.9996Z" fill="white"/>
<path d="M69.6192 57.3776C72.051 56.3418 73.2929 55.1594 74.9994 53.3809L74.2095 52.5587C70.2128 48.3931 64.0426 47.1064 58.7046 49.3842C56.2752 50.42 55.0307 51.6023 53.3242 53.3809L54.1141 54.2031C58.1133 58.3687 64.2811 59.6554 69.6192 57.3776ZM64.1619 50.6485C66.9414 50.6485 69.552 51.6222 71.6262 53.3784C67.3239 57.0224 60.9997 57.0224 56.6975 53.3784C58.7716 51.6222 61.3823 50.6485 64.1619 50.6485Z" fill="white"/>
<path d="M25.7899 54.2032C29.7892 58.3688 35.9569 59.6555 41.2974 57.3777C43.7268 56.3419 44.9687 55.1595 46.6777 53.381L45.8878 52.5588C43.2772 49.8389 39.6704 48.2715 35.8376 48.2715C33.9051 48.2715 32.0595 48.6689 30.3803 49.3843C27.951 50.4201 26.709 51.6025 25 53.381L25.7899 54.2032ZM40.3684 51.5677C41.439 52.0247 42.4277 52.6383 43.3045 53.381C39.0022 57.025 32.678 57.025 28.3758 53.381C31.6894 50.5741 36.3444 49.8512 40.3659 51.5677H40.3684Z" fill="white"/>
<path d="M50.8249 23.2899L50.0027 22.5L49.183 23.2899C42.9929 29.2291 41.6888 39.8555 50.0027 39.8555C58.3166 39.8555 57.0149 29.2291 50.8249 23.2899ZM52.1613 36.9766C51.0609 37.6497 48.9421 37.6497 47.8417 36.9766C47.161 36.5593 46.7586 35.8588 46.5972 34.9993C46.0433 32.0683 48.0006 28.1436 50.0002 25.8608C51.4633 27.53 52.5662 29.5669 53.1176 31.5118C53.6368 33.35 53.8529 35.9433 52.1588 36.9766H52.1613Z" fill="white"/>
</svg>
